# xmcd
#
# Track frame offsets:
#	150
#	10556
#	22500
#	36389
#	51132
#	74112
#	84596
#	95613
#	109757
#	127492
#
# Disc length: 1977 seconds
#
# Revision: 0
# Processed by: cddbd v1.5.1PL0 Copyright (c) Steve Scherf et al.
# Submitted via: dBpowerAMP V4.0
#
DISCID=8307b70a
DTITLE=The Templet Family - I Can Hardly Wait
DYEAR=1992
DGENRE=Gospel
TTITLE0=Home Sick Kind Of Feeling
TTITLE1=Salvation Is Free
TTITLE2=Mamma Prayed For Me
TTITLE3=Unworthy Of A Welcome
TTITLE4=I Choose To Be A Christian
TTITLE5=I Can Hardly Wait
TTITLE6=Sound The Trumpet
TTITLE7=He's Everything
TTITLE8=The Begger
TTITLE9=I Want Us To Be Together
EXTD=
EXTT0=
EXTT1=
EXTT2=
EXTT3=
EXTT4=
EXTT5=
EXTT6=
EXTT7=
EXTT8=
EXTT9=
PLAYORDER=
